<svg xmlns="http://www.w3.org/2000/svg" version="1.1" xmlns:xlink="http://www.w3.org/1999/xlink" xmlns:svgjs="http://svgjs.dev/svgjs" width="800" height="800"><svg id="SvgjsSvg1003" xmlns="http://www.w3.org/2000/svg" version="1.1" xmlns:xlink="http://www.w3.org/1999/xlink" viewBox="0 0 800 800">
  <!-- Generator: Adobe Illustrator 29.2.1, SVG Export Plug-In . SVG Version: 2.1.0 Build 116)  -->
  <defs>
    <style>
      .st0 {
        fill: none;
      }

      .st1 {
        fill: #eee;
      }

      .st2 {
        fill: #0065bd;
      }

      .st3 {
        clip-path: url(#clippath);
      }
    </style>
    <clipPath id="SvgjsClipPath1002">
      <rect class="st0" x="0" width="800" height="800"></rect>
    </clipPath>
  </defs>
  <rect class="st0" x="0" width="800" height="800"></rect>
  <g class="st3">
    <g>
      <path class="st1" d="M740.72-45.33H48.06C-6.59-45.33-50.89,16.06-50.89,91.79v617.08c0,75.73,44.3,137.13,98.95,137.13h692.65c54.65,0,98.95-61.39,98.95-137.13V91.79c0-75.73-44.3-137.13-98.95-137.13Z"></path>
      <path class="st2" d="M288.94,400.33S-.18,110.19-.18,119.71v561.24c0,9.52,289.12-280.62,289.12-280.62ZM400.14,492.8S82.04,801,90.33,801h619.58c8.32,0-309.78-308.21-309.78-308.21ZM511.34,400.33s289.12,290.15,289.12,280.62V119.71c0-9.52-289.12,280.62-289.12,280.62ZM400.14,307.87S82.04-.34,90.33-.34h619.58c8.32,0-309.78,308.21-309.78,308.21Z"></path>
    </g>
  </g>
</svg><style>@media (prefers-color-scheme: light) { :root { filter: none; } }
@media (prefers-color-scheme: dark) { :root { filter: none; } }
</style></svg>